<?xml version="1.0" encoding="UTF-8"?>
<svg width="56" height="56" viewBox="0 0 56 56" fill="none" xmlns="http://www.w3.org/2000/svg">
  <!-- Background -->
  <circle cx="28" cy="28" r="28" fill="#205B56" fill-opacity="0.24"/>

  <!-- Database icon (same stroke style as service icons) -->
  <g stroke="#205B56" stroke-width="1.5" stroke-linecap="round" stroke-linejoin="round">
    <!-- Top ellipse -->
    <ellipse cx="28" cy="18.5" rx="12.5" ry="4.2"/>

    <!-- Body outline -->
    <path d="M15.5 18.5V35.8C15.5 40.1 21.1 43.5 28 43.5C34.9 43.5 40.5 40.1 40.5 35.8V18.5"/>

    <!-- Tier ellipses -->
    <path d="M15.5 24.3C15.5 28.0 21.1 31.0 28 31.0C34.9 31.0 40.5 28.0 40.5 24.3"/>
    <path d="M15.5 30.1C15.5 33.8 21.1 36.8 28 36.8C34.9 36.8 40.5 33.8 40.5 30.1"/>

    <!-- Bottom ellipse hint -->
    <path d="M15.5 35.8C15.5 40.1 21.1 43.5 28 43.5C34.9 43.5 40.5 40.1 40.5 35.8"/>

    <!-- Small "data" ticks -->
    <path d="M22 21.6H24.2"/>
    <path d="M22 27.3H25.6"/>
    <path d="M22 33.0H24.8"/>
    <path d="M22 38.7H25.0"/>
  </g>
</svg>
