<svg width="56" height="56" viewBox="0 0 56 56" fill="none" xmlns="http://www.w3.org/2000/svg">
<path d="M56 28C56 12.536 43.464 0 28 0C12.536 0 0 12.536 0 28C0 43.464 12.536 56 28 56C43.464 56 56 43.464 56 28Z" fill="#F0F0F0" fill-opacity="0.88"/>
<path d="M22.0012 28C17.2012 28 17.2012 30.148 17.2012 32.8V34C17.2012 37.312 17.2012 40 23.2012 40H32.8012C37.6012 40 38.8012 37.312 38.8012 34V32.8C38.8012 30.148 38.8012 28 34.0012 28C32.8012 28 32.4652 28.252 31.8412 28.72L30.6172 30.016C29.2012 31.528 26.8012 31.528 25.3732 30.016L24.1612 28.72C23.5372 28.252 23.2012 28 22.0012 28Z" stroke="#205B56" stroke-width="1.5" stroke-miterlimit="10" stroke-linecap="round" stroke-linejoin="round"/>
<path d="M36.4016 28V20.8C36.4016 18.148 36.4016 16 31.6016 16H24.4016C19.6016 16 19.6016 18.148 19.6016 20.8V28" stroke="#205B56" stroke-width="1.5" stroke-miterlimit="10" stroke-linecap="round" stroke-linejoin="round"/>
</svg>
