<svg width="64px" height="64px" viewBox="0 0 64 64" version="1.1" xmlns="http://www.w3.org/2000/svg">
    <circle cx="32" cy="32" r="30" fill="#F0F4F8"/>

    <rect x="22" y="22" width="20" height="20" rx="4" fill="#4A90E2"/>

    <path d="M18,14 C10,14 4,20 4,28 L4,36 C4,44 10,50 18,50 L22,50 L22,44 L18,44 C14,44 10,40 10,36 L10,28 C10,24 14,20 18,20 L22,20 L22,14 L18,14 Z" fill="#2C3E50"/>

    <path d="M46,14 L42,14 L42,20 L46,20 C50,20 54,24 54,28 L54,36 C54,40 50,44 46,44 L42,44 L42,50 L46,50 C54,50 60,44 60,36 L60,28 C60,20 54,14 46,14 Z" fill="#2C3E50"/>
</svg>