<svg width="56" height="56" viewBox="0 0 56 56" fill="none" xmlns="http://www.w3.org/2000/svg">
<path d="M56 28C56 12.536 43.464 0 28 0C12.536 0 0 12.536 0 28C0 43.464 12.536 56 28 56C43.464 56 56 43.464 56 28Z" fill="#F0F0F0" fill-opacity="0.88"/>
<path d="M39.966 35.596C39.966 36.028 39.87 36.472 39.666 36.904C39.462 37.336 39.198 37.744 38.85 38.128C38.262 38.776 37.614 39.244 36.882 39.544C36.162 39.844 35.382 40 34.542 40C33.318 40 32.01 39.712 30.63 39.124C29.25 38.536 27.87 37.744 26.502 36.748C25.122 35.74 23.814 34.624 22.566 33.388C21.33 32.14 20.214 30.832 19.218 29.464C18.234 28.096 17.442 26.728 16.866 25.372C16.29 24.004 16.002 22.696 16.002 21.448C16.002 20.632 16.146 19.852 16.434 19.132C16.722 18.4 17.178 17.728 17.814 17.128C18.582 16.372 19.422 16 20.31 16C20.646 16 20.982 16.072 21.282 16.216C21.594 16.36 21.87 16.576 22.086 16.888L24.87 20.812C25.086 21.112 25.242 21.388 25.35 21.652C25.458 21.904 25.518 22.156 25.518 22.384C25.518 22.672 25.434 22.96 25.266 23.236C25.11 23.512 24.882 23.8 24.594 24.088L23.682 25.036C23.55 25.168 23.49 25.324 23.49 25.516C23.49 25.612 23.502 25.696 23.526 25.792C23.562 25.888 23.598 25.96 23.622 26.032C23.838 26.428 24.21 26.944 24.738 27.568C25.278 28.192 25.854 28.828 26.478 29.464C27.126 30.1 27.75 30.688 28.386 31.228C29.01 31.756 29.526 32.116 29.934 32.332C29.994 32.356 30.066 32.392 30.15 32.428C30.246 32.464 30.342 32.476 30.45 32.476C30.654 32.476 30.81 32.404 30.942 32.272L31.854 31.372C32.154 31.072 32.442 30.844 32.718 30.7C32.994 30.532 33.27 30.448 33.57 30.448C33.798 30.448 34.038 30.496 34.302 30.604C34.566 30.712 34.842 30.868 35.142 31.072L39.114 33.892C39.426 34.108 39.642 34.36 39.774 34.66C39.894 34.96 39.966 35.26 39.966 35.596Z" stroke="#205B56" stroke-width="1.5" stroke-miterlimit="10"/>
</svg>
