<svg width="56" height="56" viewBox="0 0 56 56" fill="none" xmlns="http://www.w3.org/2000/svg">
<path d="M56 28C56 12.536 43.464 0 28 0C12.536 0 0 12.536 0 28C0 43.464 12.536 56 28 56C43.464 56 56 43.464 56 28Z" fill="#205B56" fill-opacity="0.24"/>
<path d="M38 29.9798V35.9078H18V29.9798C18 24.1958 22.4419 19.5159 27.9317 19.5159H28.0683C33.5581 19.5159 38 24.1958 38 29.9798Z" stroke="#205B56" stroke-width="1.5" stroke-linecap="round" stroke-linejoin="round"/>
<path d="M28 16V19.516" stroke="#205B56" stroke-width="1.5" stroke-linecap="round" stroke-linejoin="round"/>
<path d="M32.1571 35.908C32.009 38.1999 30.1981 39.9999 27.9999 39.9999C25.8018 39.9999 23.9908 38.1999 23.8428 35.908H32.1571Z" stroke="#205B56" stroke-width="1.5" stroke-linecap="round" stroke-linejoin="round"/>
</svg>
