<svg width="56" height="56" viewBox="0 0 56 56" fill="none" xmlns="http://www.w3.org/2000/svg">
<path d="M56 28C56 12.536 43.464 0 28 0C12.536 0 0 12.536 0 28C0 43.464 12.536 56 28 56C43.464 56 56 43.464 56 28Z" fill="#205B56" fill-opacity="0.24"/>
<path d="M18 37.9897H38" stroke="#205B56" stroke-width="1.5" stroke-miterlimit="10" stroke-linecap="round" stroke-linejoin="round"/>
<path d="M31.01 37.9796L19.01 38L19 22.7609C19 22.0775 19.34 21.4451 19.89 21.0677L23.89 18.3443C24.56 17.8852 25.44 17.8852 26.11 18.3443L30.11 21.0677C30.67 21.4451 31 22.0775 31 22.7609L31.01 37.9796Z" stroke="#205B56" stroke-width="1.5" stroke-miterlimit="10" stroke-linecap="round" stroke-linejoin="round"/>
<path d="M35.98 37.9999V33.9097" stroke="#205B56" stroke-width="1.5" stroke-miterlimit="10" stroke-linecap="round" stroke-linejoin="round"/>
<path d="M36 27.7896C34.9 27.7896 34 28.7076 34 29.8296V31.8696C34 32.9916 34.9 33.9096 36 33.9096C37.1 33.9096 38 32.9916 38 31.8696V29.8296C38 28.7076 37.1 27.7896 36 27.7896Z" stroke="#205B56" stroke-width="1.5" stroke-miterlimit="10" stroke-linecap="round" stroke-linejoin="round"/>
<path d="M19 29.8296H31" stroke="#205B56" stroke-width="1.5" stroke-miterlimit="10" stroke-linecap="round" stroke-linejoin="round"/>
<path d="M25 37.9899V34.1648" stroke="#205B56" stroke-width="1.5" stroke-miterlimit="10" stroke-linecap="round" stroke-linejoin="round"/>
<path d="M25 26.2595C25.8284 26.2595 26.5 25.5745 26.5 24.7295C26.5 23.8845 25.8284 23.1995 25 23.1995C24.1716 23.1995 23.5 23.8845 23.5 24.7295C23.5 25.5745 24.1716 26.2595 25 26.2595Z" stroke="#205B56" stroke-width="1.5" stroke-miterlimit="10" stroke-linecap="round" stroke-linejoin="round"/>
</svg>
